# xmcd
#
# Track frame offsets: 
#        150
#        19085
#        44370
#        65997
#        90970
#        108080
#        129579
#        145182
#        165172
#        179827
#        207137
#        227997
#        247682
#        268790
#        287840
#
# Disc length: 4155 seconds
#
# Revision: 6
# Processed by: cddbd v1.5.2PL0 Copyright (c) Steve Scherf et al.
# Submitted via: ExactAudioCopyFreeDBPlugin 1.0
#
DISCID=d110390f
DTITLE=Various Artist - Closer To The Music Vol. 2 - Stockfisch
DYEAR=2006
DGENRE=Folk-Rock
TTITLE0=Sara K. - Stars
TTITLE1=Sara K. - Set You Free
TTITLE2=Steve Strauss - Just Like Love
TTITLE3=Steve Strauss - Old Crow
TTITLE4=Eugene Ruffolo - The Same Kind Words
TTITLE5=Ewen Carruthers - When Time Turns Around
TTITLE6=Ewen Carruthers - Paris
TTITLE7=David Roth - Streets of London
TTITLE8=David Roth - Song For You Far Aaway
TTITLE9=Christian Willisohn - Caruso
TTITLE10=David Munyon - Four Wild Horses
TTITLE11=David Munyon - Lookin' At The Rain
TTITLE12=Mike Silver - Heaven
TTITLE13=Mike Silver - Maybe It's Just Love
TTITLE14=Louis Capart and Duo Balance - Au Large Du Gueveur
EXTD=
EXTT0=
EXTT1=
EXTT2=
EXTT3=
EXTT4=
EXTT5=
EXTT6=
EXTT7=
EXTT8=
EXTT9=
EXTT10=
EXTT11=
EXTT12=
EXTT13=
EXTT14=
PLAYORDER=
